<?xml version="1.0" encoding="UTF-8" standalone="no"?>
<!DOCTYPE svg PUBLIC "-//W3C//DTD SVG 1.1//EN" "http://www.w3.org/Graphics/SVG/1.1/DTD/svg11.dtd">
<svg width="100%" height="100%" viewBox="0 0 871 870" version="1.1" xmlns="http://www.w3.org/2000/svg" xmlns:xlink="http://www.w3.org/1999/xlink" xml:space="preserve" xmlns:serif="http://www.serif.com/" style="fill-rule:evenodd;clip-rule:evenodd;stroke-linejoin:round;stroke-miterlimit:2;">
    <g transform="matrix(0.989909,0,0,1.02527,-79.6896,-116.893)">
        <path d="M960.033,226.279L960.033,850.213C960.033,912.175 907.931,962.481 843.756,962.481L196.779,962.481C132.604,962.481 80.502,912.175 80.502,850.213L80.502,226.279C80.502,164.317 132.604,114.012 196.779,114.012L843.756,114.012C907.931,114.012 960.033,164.317 960.033,226.279Z" style="fill:rgb(82,180,251);"/>
    </g>
    <g transform="matrix(1.09367,0,0,1.09367,-148.771,-127.179)">
        <path d="M639.257,197.626C696.981,197.626 743.845,244.49 743.845,302.215C743.845,359.939 696.981,406.803 639.257,406.803C581.532,406.803 534.668,359.939 534.668,302.215C534.668,244.49 581.532,197.626 639.257,197.626ZM639.257,224.401C596.31,224.401 561.443,259.268 561.443,302.215C561.443,345.161 596.31,380.028 639.257,380.028C682.203,380.028 717.07,345.161 717.07,302.215C717.07,259.268 682.203,224.401 639.257,224.401ZM629.07,307.309C628.907,306.583 628.82,305.828 628.82,305.054C628.82,304.772 628.832,304.494 628.854,304.218L628.854,253.548C628.854,247.901 633.439,243.316 639.085,243.316C644.732,243.316 649.317,247.901 649.317,253.548L649.317,294.822L677.64,294.822C683.287,294.822 687.872,299.407 687.872,305.054C687.872,310.7 683.287,315.285 677.64,315.285L640.868,315.285C640.289,315.387 639.694,315.44 639.085,315.44C634.158,315.44 630.04,311.95 629.07,307.309ZM518.374,296.231L397.322,412.718L361.429,375.418C319.33,331.669 320.425,262.206 363.873,220.397C407.32,178.587 476.774,180.162 518.873,223.911L535.278,240.958C525.5,257.283 519.468,276.104 518.374,296.231ZM642.66,423.562C638.174,443.745 627.928,462.843 611.962,478.207C568.514,520.017 499.06,518.442 456.961,474.693L414.366,430.429L520.815,327.994C532.387,382.596 580.909,423.618 638.937,423.618C640.182,423.618 641.424,423.599 642.66,423.562Z" style="fill:white;"/>
    </g>
    <g transform="matrix(6.69149,0,0,7.4607,-1319.1,-3957.73)">
        <g transform="matrix(24,0,0,24,214.183,613.163)">
            <path d="M0.035,-0.237L0.245,-0.25C0.25,-0.216 0.259,-0.19 0.273,-0.172C0.296,-0.143 0.328,-0.128 0.371,-0.128C0.402,-0.128 0.427,-0.136 0.444,-0.151C0.461,-0.165 0.469,-0.183 0.469,-0.202C0.469,-0.221 0.461,-0.237 0.445,-0.252C0.429,-0.267 0.391,-0.28 0.332,-0.293C0.235,-0.315 0.165,-0.344 0.124,-0.38C0.082,-0.417 0.062,-0.463 0.062,-0.519C0.062,-0.555 0.072,-0.59 0.094,-0.623C0.115,-0.656 0.147,-0.681 0.19,-0.7C0.233,-0.719 0.291,-0.728 0.366,-0.728C0.457,-0.728 0.527,-0.711 0.575,-0.677C0.623,-0.643 0.652,-0.589 0.661,-0.515L0.452,-0.502C0.447,-0.535 0.435,-0.558 0.417,-0.573C0.399,-0.587 0.375,-0.595 0.344,-0.595C0.318,-0.595 0.299,-0.589 0.286,-0.578C0.273,-0.567 0.266,-0.554 0.266,-0.539C0.266,-0.527 0.271,-0.517 0.282,-0.508C0.293,-0.498 0.317,-0.49 0.356,-0.481C0.453,-0.461 0.522,-0.44 0.564,-0.418C0.606,-0.397 0.636,-0.37 0.656,-0.339C0.675,-0.307 0.684,-0.272 0.684,-0.233C0.684,-0.187 0.671,-0.145 0.646,-0.106C0.621,-0.067 0.585,-0.038 0.54,-0.018C0.494,0.002 0.437,0.012 0.367,0.012C0.245,0.012 0.161,-0.011 0.114,-0.058C0.067,-0.105 0.041,-0.165 0.035,-0.237Z" style="fill:white;fill-rule:nonzero;"/>
        </g>
        <g transform="matrix(24,0,0,24,231.515,613.163)">
            <rect x="0.061" y="-0.199" width="0.212" height="0.199" style="fill:white;fill-rule:nonzero;"/>
        </g>
        <g transform="matrix(24,0,0,24,239.507,613.163)">
            <path d="M0.514,-0.118L0.262,-0.118L0.227,-0L0.001,-0L0.27,-0.716L0.511,-0.716L0.78,-0L0.549,-0L0.514,-0.118ZM0.467,-0.273L0.388,-0.53L0.31,-0.273L0.467,-0.273Z" style="fill:white;fill-rule:nonzero;"/>
        </g>
        <g transform="matrix(24,0,0,24,258.175,613.163)">
            <rect x="0.061" y="-0.199" width="0.212" height="0.199" style="fill:white;fill-rule:nonzero;"/>
        </g>
        <g transform="matrix(24,0,0,24,266.167,613.163)">
            <path d="M0.074,-0.716L0.621,-0.716L0.621,-0.562L0.296,-0.562L0.296,-0.437L0.574,-0.437L0.574,-0.292L0.296,-0.292L0.296,-0L0.074,-0L0.074,-0.716Z" style="fill:white;fill-rule:nonzero;"/>
        </g>
        <g transform="matrix(24,0,0,24,278.507,613.163)">
            <rect x="0.061" y="-0.199" width="0.212" height="0.199" style="fill:white;fill-rule:nonzero;"/>
        </g>
        <g transform="matrix(24,0,0,24,286.5,613.163)">
            <path d="M0.073,-0.716L0.666,-0.716L0.666,-0.563L0.294,-0.563L0.294,-0.449L0.639,-0.449L0.639,-0.303L0.294,-0.303L0.294,-0.162L0.676,-0.162L0.676,-0L0.073,-0L0.073,-0.716Z" style="fill:white;fill-rule:nonzero;"/>
        </g>
        <g transform="matrix(24,0,0,24,303.832,613.163)">
            <rect x="0.061" y="-0.199" width="0.212" height="0.199" style="fill:white;fill-rule:nonzero;"/>
        </g>
    </g>
    <g transform="matrix(0.999493,0,0,0.970275,-105.727,-62.9395)">
        <g transform="matrix(160.596,0,0,179.057,309.896,866.396)">
            <path d="M0.071,-0.716L0.362,-0.716L0.474,-0.28L0.586,-0.716L0.876,-0.716L0.876,-0L0.695,-0L0.695,-0.546L0.555,-0L0.392,-0L0.252,-0.546L0.252,-0L0.071,-0L0.071,-0.716Z" style="fill:white;fill-rule:nonzero;"/>
        </g>
        <g transform="matrix(160.596,0,0,179.057,461.474,866.396)">
            <path d="M0.636,-0.21L0.237,-0.21C0.241,-0.178 0.25,-0.154 0.263,-0.139C0.282,-0.116 0.307,-0.105 0.338,-0.105C0.358,-0.105 0.376,-0.11 0.394,-0.12C0.405,-0.126 0.416,-0.137 0.429,-0.152L0.625,-0.134C0.595,-0.082 0.558,-0.045 0.516,-0.022C0.474,0 0.413,0.012 0.334,0.012C0.265,0.012 0.211,0.002 0.172,-0.017C0.132,-0.037 0.1,-0.067 0.074,-0.11C0.048,-0.152 0.035,-0.201 0.035,-0.258C0.035,-0.339 0.061,-0.405 0.113,-0.455C0.165,-0.505 0.237,-0.53 0.328,-0.53C0.402,-0.53 0.461,-0.519 0.504,-0.497C0.547,-0.474 0.58,-0.442 0.602,-0.399C0.625,-0.356 0.636,-0.301 0.636,-0.232L0.636,-0.21ZM0.434,-0.305C0.43,-0.344 0.419,-0.371 0.403,-0.388C0.386,-0.404 0.364,-0.413 0.336,-0.413C0.305,-0.413 0.28,-0.4 0.261,-0.375C0.249,-0.359 0.241,-0.336 0.238,-0.305L0.434,-0.305Z" style="fill:white;fill-rule:nonzero;"/>
        </g>
        <g transform="matrix(160.596,0,0,179.057,568.59,866.396)">
            <path d="M0.606,-0.716L0.606,-0L0.42,-0L0.42,-0.077C0.394,-0.044 0.37,-0.022 0.349,-0.011C0.32,0.004 0.288,0.012 0.253,0.012C0.182,0.012 0.128,-0.015 0.091,-0.069C0.054,-0.123 0.035,-0.188 0.035,-0.265C0.035,-0.351 0.056,-0.416 0.097,-0.462C0.138,-0.507 0.19,-0.53 0.254,-0.53C0.285,-0.53 0.313,-0.525 0.338,-0.515C0.363,-0.504 0.386,-0.489 0.405,-0.468L0.405,-0.716L0.606,-0.716ZM0.407,-0.261C0.407,-0.301 0.398,-0.332 0.381,-0.352C0.364,-0.372 0.342,-0.382 0.315,-0.382C0.292,-0.382 0.273,-0.372 0.257,-0.353C0.242,-0.334 0.234,-0.302 0.234,-0.256C0.234,-0.214 0.242,-0.183 0.258,-0.163C0.274,-0.144 0.294,-0.134 0.318,-0.134C0.343,-0.134 0.364,-0.144 0.381,-0.164C0.398,-0.183 0.407,-0.216 0.407,-0.261Z" style="fill:white;fill-rule:nonzero;"/>
        </g>
        <g transform="matrix(160.596,0,0,179.057,675.706,866.396)">
            <path d="M0.025,-0.144L0.222,-0.162C0.23,-0.139 0.242,-0.122 0.256,-0.112C0.271,-0.102 0.291,-0.097 0.315,-0.097C0.342,-0.097 0.362,-0.102 0.377,-0.114C0.388,-0.122 0.394,-0.133 0.394,-0.146C0.394,-0.16 0.387,-0.171 0.372,-0.179C0.361,-0.184 0.332,-0.191 0.286,-0.199C0.217,-0.211 0.169,-0.222 0.142,-0.233C0.115,-0.243 0.093,-0.26 0.074,-0.285C0.056,-0.309 0.047,-0.337 0.047,-0.368C0.047,-0.402 0.057,-0.432 0.077,-0.457C0.097,-0.481 0.124,-0.5 0.159,-0.512C0.194,-0.524 0.24,-0.53 0.299,-0.53C0.361,-0.53 0.406,-0.526 0.436,-0.516C0.465,-0.507 0.49,-0.492 0.51,-0.472C0.529,-0.452 0.546,-0.425 0.559,-0.392L0.37,-0.373C0.365,-0.39 0.357,-0.402 0.346,-0.41C0.33,-0.42 0.311,-0.425 0.289,-0.425C0.267,-0.425 0.25,-0.421 0.24,-0.413C0.23,-0.405 0.225,-0.396 0.225,-0.384C0.225,-0.372 0.231,-0.362 0.244,-0.355C0.257,-0.349 0.285,-0.343 0.329,-0.338C0.395,-0.33 0.444,-0.32 0.477,-0.307C0.509,-0.293 0.533,-0.274 0.551,-0.25C0.568,-0.225 0.576,-0.198 0.576,-0.168C0.576,-0.138 0.567,-0.109 0.549,-0.081C0.531,-0.052 0.503,-0.03 0.464,-0.013C0.425,0.004 0.372,0.012 0.305,0.012C0.21,0.012 0.142,-0.001 0.102,-0.028C0.062,-0.055 0.036,-0.094 0.025,-0.144Z" style="fill:white;fill-rule:nonzero;"/>
        </g>
    </g>
</svg>
