<?xml version="1.0" encoding="UTF-8" standalone="no"?>
<!DOCTYPE svg PUBLIC "-//W3C//DTD SVG 1.1//EN" "http://www.w3.org/Graphics/SVG/1.1/DTD/svg11.dtd">
<svg width="100%" height="100%" viewBox="0 0 871 870" version="1.1" xmlns="http://www.w3.org/2000/svg" xmlns:xlink="http://www.w3.org/1999/xlink" xml:space="preserve" xmlns:serif="http://www.serif.com/" style="fill-rule:evenodd;clip-rule:evenodd;stroke-linejoin:round;stroke-miterlimit:2;">
    <g transform="matrix(2.08012,0,0,2.08012,-682.116,-291.637)">
        <path d="M639.257,197.626C696.981,197.626 743.845,244.49 743.845,302.215C743.845,359.939 696.981,406.803 639.257,406.803C581.532,406.803 534.668,359.939 534.668,302.215C534.668,244.49 581.532,197.626 639.257,197.626ZM639.257,224.401C596.31,224.401 561.443,259.268 561.443,302.215C561.443,345.161 596.31,380.028 639.257,380.028C682.203,380.028 717.07,345.161 717.07,302.215C717.07,259.268 682.203,224.401 639.257,224.401ZM629.07,307.309C628.907,306.583 628.82,305.828 628.82,305.054C628.82,304.772 628.832,304.494 628.854,304.218L628.854,253.548C628.854,247.901 633.439,243.316 639.085,243.316C644.732,243.316 649.317,247.901 649.317,253.548L649.317,294.822L677.64,294.822C683.287,294.822 687.872,299.407 687.872,305.054C687.872,310.7 683.287,315.285 677.64,315.285L640.868,315.285C640.289,315.387 639.694,315.44 639.085,315.44C634.158,315.44 630.04,311.95 629.07,307.309ZM518.374,296.231L397.322,412.718L361.429,375.418C319.33,331.669 320.425,262.206 363.873,220.397C407.32,178.587 476.774,180.162 518.873,223.911L535.278,240.958C525.5,257.283 519.468,276.104 518.374,296.231ZM642.66,423.562C638.174,443.745 627.928,462.843 611.962,478.207C568.514,520.017 499.06,518.442 456.961,474.693L414.366,430.429L520.815,327.994C532.387,382.596 580.909,423.618 638.937,423.618C640.182,423.618 641.424,423.599 642.66,423.562Z" style="fill:white;"/>
    </g>
</svg>
